# xmcd CD database file
#
# Track frame offsets:
#	150
#	12657
#	27230
#	43392
#	58612
#	77150
#	97627
#	120457
#	148797
#	161147
#	175812
#	195467
#	211295
#
# Disc length: 3049 seconds
#
# Revision: 17
# Processed by: cddbd v1.5.2PL0 Copyright (c) Steve Scherf et al.
# Submitted via: CDex 1.51
#
DISCID=af0be70d
DTITLE=Brad Paisley - Part II
DYEAR=2001
DGENRE=Country
TTITLE0=Two Feet Of Topsoil
TTITLE1=I'm Gonna Miss Her
TTITLE2=Part Two
TTITLE3=Wrapped Around
TTITLE4=Two People Fell In Love
TTITLE5=Come On Over Tonight
TTITLE6=You'll Never Leave Harlan Alive
TTITLE7=I Wish You'd Stay
TTITLE8=All You Really Need Is Love
TTITLE9=Munster Rag
TTITLE10=You Have That Effect On Me
TTITLE11=Too Country
TTITLE12=The Old Rugged Cross
EXTD=Part II YEAR: 2001
EXTT0=
EXTT1=
EXTT2=
EXTT3=
EXTT4=
EXTT5=
EXTT6=
EXTT7=
EXTT8=
EXTT9=
EXTT10=
EXTT11=
EXTT12=
PLAYORDER=
